<?xml version="1.0" encoding="UTF-8" standalone="no"?>
<!DOCTYPE svg PUBLIC "-//W3C//DTD SVG 1.1//EN" "http://www.w3.org/Graphics/SVG/1.1/DTD/svg11.dtd">
<svg width="100%" height="100%" viewBox="0 0 32 32" version="1.1" xmlns="http://www.w3.org/2000/svg" xmlns:xlink="http://www.w3.org/1999/xlink" xml:space="preserve" xmlns:serif="http://www.serif.com/" style="fill-rule:evenodd;clip-rule:evenodd;stroke-linejoin:round;stroke-miterlimit:2;">
    <g id="OUTLINE_copy">
        <path d="M13.892,24.123L17.249,24.123L17.249,15.999L19.488,15.999L19.785,13.2L17.249,13.2L17.252,11.798C17.252,11.068 17.322,10.677 18.369,10.677L19.769,10.677L19.769,7.877L17.529,7.877C14.839,7.877 13.892,9.235 13.892,11.519L13.892,13.2L12.215,13.2L12.215,16L13.892,16L13.892,24.123Z" style="fill:white;fill-rule:nonzero;"/>
        <path id="Shopping_10_122_" d="M16,1C24.271,1 31,7.729 31,16C31,24.271 24.271,31 16,31C7.729,31 1,24.271 1,16C1,7.729 7.729,1 16,1M16,0C7.163,0 0,7.163 0,16C0,24.837 7.163,32 16,32C24.837,32 32,24.837 32,16C32,7.163 24.837,0 16,0Z" style="fill:white;fill-rule:nonzero;"/>
    </g>
</svg>
