<?xml version="1.0" encoding="UTF-8" standalone="no"?>
<!DOCTYPE svg PUBLIC "-//W3C//DTD SVG 1.1//EN" "http://www.w3.org/Graphics/SVG/1.1/DTD/svg11.dtd">
<svg width="100%" height="100%" viewBox="0 0 32 32" version="1.1" xmlns="http://www.w3.org/2000/svg" xmlns:xlink="http://www.w3.org/1999/xlink" xml:space="preserve" xmlns:serif="http://www.serif.com/" style="fill-rule:evenodd;clip-rule:evenodd;stroke-linejoin:round;stroke-miterlimit:2;">
    <g id="OUTLINE_copy">
        <path d="M21.874,8.167L10.126,8.167C10.116,8.167 10.105,8.167 10.095,8.167C9.037,8.167 8.167,9.037 8.167,10.095C8.167,10.105 8.167,10.116 8.167,10.126L8.167,21.875C8.167,22.98 9.019,23.834 10.126,23.834L21.875,23.834C21.885,23.834 21.895,23.834 21.905,23.834C22.963,23.834 23.834,22.963 23.834,21.905C23.834,21.895 23.834,21.885 23.834,21.875L23.834,10.126C23.834,10.116 23.834,10.107 23.834,10.097C23.834,9.038 22.963,8.167 21.904,8.167C21.894,8.167 21.884,8.167 21.874,8.167ZM16.012,12.923C17.749,12.923 19.157,14.287 19.157,15.971C19.157,17.653 17.749,19.019 16.012,19.019C14.276,19.019 12.868,17.654 12.868,15.971C12.868,14.287 14.276,12.923 16.012,12.923ZM21.874,21.385C21.874,21.729 21.727,21.875 21.384,21.875L10.614,21.875C10.271,21.875 10.124,21.729 10.124,21.385L10.124,14.531L11.344,14.796C11.21,15.231 11.142,15.684 11.142,16.14C11.142,18.744 13.323,20.856 16.01,20.856C18.698,20.856 20.878,18.744 20.878,16.14C20.878,15.673 20.807,15.222 20.676,14.796L21.873,14.531L21.873,21.385L21.874,21.385ZM21.874,12.574C21.874,12.843 21.653,13.064 21.384,13.064L19.425,13.064C19.156,13.064 18.935,12.843 18.935,12.574L18.935,10.615C18.935,10.346 19.156,10.125 19.425,10.125L21.384,10.125C21.653,10.125 21.874,10.346 21.874,10.615L21.874,12.574Z" style="fill:white;fill-rule:nonzero;"/>
        <path id="Shopping_10_108_" d="M16,1C24.271,1 31,7.729 31,16C31,24.271 24.271,31 16,31C7.729,31 1,24.271 1,16C1,7.729 7.729,1 16,1M16,0C7.163,0 0,7.164 0,16C0,24.836 7.163,32 16,32C24.837,32 32,24.837 32,16C32,7.163 24.837,0 16,0Z" style="fill:white;fill-rule:nonzero;"/>
    </g>
</svg>
