<?xml version="1.0" encoding="UTF-8" standalone="no"?>
<!DOCTYPE svg PUBLIC "-//W3C//DTD SVG 1.1//EN" "http://www.w3.org/Graphics/SVG/1.1/DTD/svg11.dtd">
<svg width="100%" height="100%" viewBox="0 0 32 32" version="1.1" xmlns="http://www.w3.org/2000/svg" xmlns:xlink="http://www.w3.org/1999/xlink" xml:space="preserve" xmlns:serif="http://www.serif.com/" style="fill-rule:evenodd;clip-rule:evenodd;stroke-linejoin:round;stroke-miterlimit:2;">
    <path d="M30.402,19.824C30.173,19.457 29.796,19.207 29.368,19.138L19.91,17.621C19.467,17.547 19.015,17.68 18.679,17.979C17.928,18.643 17.325,19.422 16.89,20.282C15.825,19.675 14.843,18.924 13.959,18.041C13.076,17.157 12.325,16.176 11.718,15.11C12.578,14.674 13.358,14.071 14.022,13.321C14.319,12.984 14.451,12.532 14.379,12.089L12.862,2.631C12.793,2.203 12.543,1.826 12.175,1.596C11.499,1.174 10.746,0.875 10.02,0.727C9.458,0.576 8.854,0.5 8.225,0.5C3.965,0.5 0.5,3.965 0.5,8.225C0.5,21.059 10.941,31.5 23.775,31.5C28.035,31.5 31.5,28.035 31.5,23.775C31.5,23.144 31.424,22.54 31.293,22.064C31.126,21.255 30.826,20.501 30.402,19.824ZM23.775,28.5C12.596,28.5 3.5,19.404 3.5,8.225C3.5,5.62 5.62,3.5 8.225,3.5C8.592,3.5 8.935,3.542 9.328,3.645C9.572,3.695 9.802,3.764 10.02,3.852L11.296,11.806C10.716,12.305 10.04,12.647 9.31,12.809C8.874,12.905 8.503,13.189 8.299,13.586C8.095,13.983 8.077,14.45 8.252,14.86C9.094,16.841 10.3,18.625 11.838,20.162C13.375,21.7 15.159,22.906 17.14,23.748C17.549,23.922 18.016,23.905 18.414,23.701C18.811,23.497 19.096,23.126 19.191,22.69C19.353,21.96 19.695,21.284 20.193,20.704L28.146,21.98C28.238,22.21 28.313,22.464 28.376,22.757C28.458,23.064 28.5,23.407 28.5,23.775C28.5,26.38 26.381,28.5 23.775,28.5Z" style="fill:white;fill-rule:nonzero;"/>
    <path d="M17.217,7.079C16.426,7.053 15.714,7.744 15.71,8.572C15.706,9.4 16.375,10.075 17.203,10.079C18.467,10.084 19.65,10.576 20.537,11.463C21.424,12.349 21.915,13.533 21.921,14.796C21.925,15.623 22.596,16.29 23.421,16.29L23.428,16.29C24.256,16.287 24.925,15.612 24.921,14.784C24.912,12.724 24.108,10.791 22.658,9.341C21.209,7.892 19.276,7.088 17.217,7.079Z" style="fill:white;fill-rule:nonzero;"/>
    <path d="M27.819,15.649C28.647,15.649 29.319,14.978 29.319,14.149C29.319,11.084 28.127,8.204 25.962,6.038C23.796,3.873 20.916,2.68 17.852,2.68C17.023,2.68 16.352,3.352 16.352,4.18C16.352,5.009 17.023,5.68 17.852,5.68C20.114,5.68 22.241,6.561 23.841,8.159C25.439,9.758 26.319,11.886 26.319,14.149C26.319,14.978 26.991,15.649 27.819,15.649Z" style="fill:white;fill-rule:nonzero;"/>
</svg>
