<?xml version="1.0" encoding="UTF-8" standalone="no"?>
<!DOCTYPE svg PUBLIC "-//W3C//DTD SVG 1.1//EN" "http://www.w3.org/Graphics/SVG/1.1/DTD/svg11.dtd">
<svg width="100%" height="100%" viewBox="0 0 32 32" version="1.1" xmlns="http://www.w3.org/2000/svg" xmlns:xlink="http://www.w3.org/1999/xlink" xml:space="preserve" xmlns:serif="http://www.serif.com/" style="fill-rule:evenodd;clip-rule:evenodd;stroke-linejoin:round;stroke-miterlimit:2;">
    <path id="path6183" d="M21.313,1.943L21.313,5.818L4.375,5.818L2.438,5.818C1.096,5.818 0,6.914 0,8.256L0,26.66C0,26.698 0.004,26.735 0.012,26.771C0.072,28.061 1.134,29.096 2.438,29.096L3.906,29.096L3.906,25.223L22.781,25.223C24.123,25.223 25.219,24.127 25.219,22.785L25.219,6.318L25.219,4.381C25.219,3.039 24.123,1.943 22.781,1.943L21.313,1.943ZM22.313,2.943L22.781,2.943C23.586,2.943 24.219,3.576 24.219,4.381L24.219,20.943C23.806,20.624 23.341,20.348 22.781,20.348L22.313,20.348L22.313,2.943ZM26.656,6.787C26.382,6.787 26.156,7.013 26.156,7.287L26.156,24.723C26.156,24.997 26.382,25.223 26.656,25.223L31.5,25.223C31.774,25.223 32,24.997 32,24.723L32,7.287C32,7.013 31.774,6.787 31.5,6.787L26.656,6.787ZM2.438,6.818L21.313,6.818L21.313,21.348L22.781,21.348C23.586,21.348 24.219,21.98 24.219,22.785C24.219,23.59 23.586,24.223 22.781,24.223L20.844,24.223L2.697,24.223L2.438,24.223C1.899,24.223 1.404,24.403 1,24.701L1,8.256C1,7.451 1.632,6.818 2.438,6.818ZM27.156,7.787L31,7.787L31,24.223L27.156,24.223L27.156,23.285L29.078,23.285L29.078,22.285L27.156,22.285L27.156,21.348L28.109,21.348L28.109,20.348L27.156,20.348L27.156,19.41L29.078,19.41L29.078,18.41L27.156,18.41L27.156,17.473L28.109,17.473L28.109,16.473L27.156,16.473L27.156,15.535L29.078,15.535L29.078,14.535L27.156,14.535L27.156,13.598L28.109,13.598L28.109,12.598L27.156,12.598L27.156,11.662L29.078,11.662L29.078,10.662L27.156,10.662L27.156,9.725L28.109,9.725L28.109,8.725L27.156,8.725L27.156,7.787ZM4.375,8.725C4.101,8.725 3.875,8.95 3.875,9.225L3.875,21.816C3.875,22.091 4.101,22.316 4.375,22.316L18.906,22.316C19.181,22.316 19.406,22.091 19.406,21.816L19.406,9.225C19.406,8.95 19.181,8.725 18.906,8.725L8.734,8.725L8.734,9.725L10.656,9.725L10.656,12.615L11.656,12.615L11.656,9.725L18.406,9.725L18.406,15.504L15.531,15.504L15.531,11.646L14.531,11.646L14.531,15.504L12.609,15.504L12.609,16.504L18.406,16.504L18.406,21.316L17.469,21.316L17.469,17.941C17.469,17.667 17.243,17.441 16.969,17.441L13.094,17.441C12.819,17.441 12.594,17.667 12.594,17.941L12.594,21.316L11.656,21.316L11.656,14.6L10.656,14.6L10.656,21.316L4.875,21.316L4.875,17.473L8.734,17.473L8.734,16.473L4.875,16.473L4.875,9.725L6.797,9.725L6.797,8.725L4.375,8.725ZM13.594,18.441L16.469,18.441L16.469,21.316L13.594,21.316L13.594,18.441ZM2.438,25.223L2.906,25.223L2.906,28.096L2.438,28.096C1.632,28.096 1,27.465 1,26.66C1,25.855 1.632,25.223 2.438,25.223ZM18.414,26.15L10.18,26.18C10.158,26.18 10.137,26.182 10.115,26.186C10.103,26.187 10.092,26.189 10.08,26.191C10.067,26.194 10.054,26.197 10.041,26.201C10.036,26.202 10.031,26.204 10.025,26.205C10.019,26.207 10.014,26.209 10.008,26.211C10,26.214 9.992,26.217 9.984,26.221C9.975,26.225 9.966,26.23 9.957,26.234C9.949,26.238 9.941,26.242 9.934,26.246L7.055,27.693C6.887,27.778 6.78,27.951 6.78,28.14C6.78,28.33 6.888,28.504 7.059,28.588L9.973,30.027C10.079,30.079 10.2,30.092 10.314,30.063L18.426,30.063C18.465,30.062 18.503,30.058 18.541,30.049L19.412,30.049C20.315,30.049 21.093,29.349 21.09,28.455L21.086,27.73C21.082,26.833 20.298,26.148 19.402,26.15L18.416,26.15C18.415,26.15 18.415,26.15 18.414,26.15ZM17.918,27.15L17.918,27.152L17.92,27.633L10.686,27.615L10.684,27.178L17.918,27.15ZM18.918,27.15L19.402,27.15C19.798,27.15 20.085,27.428 20.086,27.734L20.09,28.459C20.091,28.77 19.817,29.049 19.412,29.049L18.924,29.049L18.922,28.16L18.918,27.15ZM9.686,27.49L9.688,28.098L9.689,28.773L8.4,28.135L9.686,27.49ZM10.689,28.615L17.922,28.633L17.924,29.063L10.691,29.063L10.689,28.615Z" style="fill:rgb(241,192,192);fill-rule:nonzero;"/>
</svg>
