<?xml version="1.0" encoding="UTF-8" standalone="no"?>
<!DOCTYPE svg PUBLIC "-//W3C//DTD SVG 1.1//EN" "http://www.w3.org/Graphics/SVG/1.1/DTD/svg11.dtd">
<svg width="100%" height="100%" viewBox="0 0 32 32" version="1.1" xmlns="http://www.w3.org/2000/svg" xmlns:xlink="http://www.w3.org/1999/xlink" xml:space="preserve" xmlns:serif="http://www.serif.com/" style="fill-rule:evenodd;clip-rule:evenodd;stroke-linejoin:round;stroke-miterlimit:2;">
    <path id="path4735" d="M12.732,-0.002C12.477,-0.001 12.268,0.209 12.268,0.465L12.268,2.475C7.301,4.099 3.94,8.76 4.004,14.004L2.412,14.004C2.186,14.004 2,14.19 2,14.416L2,16.592C2,16.818 2.186,17.004 2.412,17.004L29.588,17.004C29.814,17.004 30,16.818 30,16.592L30,14.416C30,14.19 29.814,14.004 29.588,14.004L27.992,14.004C28.057,8.765 24.704,4.098 19.732,2.473L19.732,0.465C19.732,0.209 19.523,-0.001 19.268,-0.002L12.732,-0.002ZM13.199,0.932L15.533,0.932L15.533,5.598L16.467,5.598L16.467,0.932L18.801,0.932L18.801,6.998C18.8,7.008 18.8,7.017 18.8,7.027C18.8,7.283 19.011,7.494 19.267,7.494C19.523,7.494 19.733,7.283 19.733,7.027C19.733,7.017 19.733,7.008 19.732,6.998L19.732,3.447C24.171,5.033 27.134,9.262 27.07,14.004L26.543,14.004C26.54,14.004 26.537,14.004 26.533,14.004C26.307,14.004 26.121,14.19 26.121,14.416C26.121,14.642 26.307,14.828 26.533,14.828C26.537,14.828 26.54,14.828 26.543,14.828L29.176,14.828L29.176,16.18L2.824,16.18L2.824,14.828L5.457,14.828C5.46,14.828 5.463,14.828 5.467,14.828C5.693,14.828 5.879,14.642 5.879,14.416C5.879,14.19 5.693,14.004 5.467,14.004C5.463,14.004 5.46,14.004 5.457,14.004L4.928,14.004C4.864,9.257 7.833,5.03 12.268,3.445L12.268,6.998C12.267,7.008 12.267,7.017 12.267,7.027C12.267,7.283 12.477,7.494 12.733,7.494C12.989,7.494 13.2,7.283 13.2,7.027C13.2,7.017 13.2,7.008 13.199,6.998L13.199,0.932ZM9.467,13.998C9.211,13.999 9.002,14.209 9.002,14.465C9.002,14.72 9.211,14.931 9.467,14.932L22.533,14.932C22.789,14.931 22.998,14.72 22.998,14.465C22.998,14.209 22.789,13.999 22.533,13.998L9.467,13.998ZM2.467,18.037C2.467,18.037 2.467,18.037 2.467,18.037C2.211,18.037 2,18.248 2,18.504L2,20.465C2,20.721 2.211,20.932 2.467,20.932L4.916,20.932C5.177,21.931 5.568,22.887 6.084,23.781L4.361,25.502C4.274,25.589 4.225,25.708 4.225,25.832C4.225,25.956 4.274,26.075 4.361,26.162L7.842,29.643C7.929,29.73 8.048,29.779 8.172,29.779C8.296,29.779 8.414,29.73 8.502,29.643L10.227,27.916C11.119,28.435 12.074,28.828 13.072,29.092L13.072,31.537C13.072,31.793 13.283,32.004 13.539,32.004L18.461,32.004C18.717,32.004 18.928,31.793 18.928,31.537C18.928,31.537 18.928,31.537 18.928,31.537L18.928,29.088C19.927,28.827 20.883,28.436 21.777,27.92L23.498,29.643C23.586,29.73 23.704,29.779 23.828,29.779C23.952,29.779 24.071,29.73 24.158,29.643L27.639,26.162C27.726,26.075 27.775,25.956 27.775,25.832C27.775,25.708 27.726,25.589 27.639,25.502L25.912,23.775C26.43,22.883 26.826,21.929 27.09,20.932L29.533,20.932C29.789,20.932 30,20.721 30,20.465C30,20.465 30,20.465 30,20.465L30,18.504C30,18.504 30,18.504 30,18.504C30,18.248 29.789,18.037 29.533,18.037C29.533,18.037 29.533,18.037 29.533,18.037L2.467,18.037ZM2.934,18.971L9.016,18.971C9.005,21.448 10.294,23.761 12.441,25.029C14.681,26.352 17.472,26.322 19.684,24.953C21.762,23.667 22.993,21.393 22.982,18.971L29.066,18.971L29.066,19.998L26.785,19.998C26.568,19.998 26.378,20.15 26.33,20.361C26.065,21.524 25.605,22.633 24.971,23.643C24.856,23.827 24.883,24.068 25.037,24.221L26.648,25.832L23.828,28.652L22.223,27.045C22.07,26.891 21.828,26.864 21.645,26.979C20.633,27.61 19.521,28.067 18.357,28.328C18.146,28.376 17.994,28.566 17.994,28.783L17.994,31.07L14.006,31.07L14.006,28.787C14.006,28.57 13.854,28.38 13.643,28.332C12.48,28.067 11.371,27.609 10.361,26.975C10.177,26.86 9.936,26.887 9.783,27.041L8.172,28.652L5.352,25.832L6.959,24.225C7.112,24.072 7.139,23.832 7.025,23.648C6.394,22.636 5.937,21.525 5.676,20.361C5.628,20.15 5.438,19.998 5.221,19.998L2.934,19.998L2.934,18.971ZM10.014,18.971L21.984,18.971C21.996,21.05 20.943,22.999 19.158,24.104C17.261,25.278 14.871,25.303 12.949,24.168C11.106,23.08 10.003,21.098 10.014,18.971Z" style="fill:rgb(241,192,192);fill-rule:nonzero;"/>
</svg>
