<?xml version="1.0" encoding="UTF-8" standalone="no"?>
<!DOCTYPE svg PUBLIC "-//W3C//DTD SVG 1.1//EN" "http://www.w3.org/Graphics/SVG/1.1/DTD/svg11.dtd">
<svg width="100%" height="100%" viewBox="0 0 32 32" version="1.1" xmlns="http://www.w3.org/2000/svg" xmlns:xlink="http://www.w3.org/1999/xlink" xml:space="preserve" xmlns:serif="http://www.serif.com/" style="fill-rule:evenodd;clip-rule:evenodd;stroke-linejoin:round;stroke-miterlimit:2;">
    <g id="path12" transform="matrix(1,0,0,1,-5e-07,2.8647e-05)">
        <path d="M16.5,1C14.45,1 12.399,1.511 10.563,2.563C6.952,4.629 4.7,8.436 4.625,12.563C4.623,12.672 4.625,13.032 4.625,13.469C4.625,13.665 4.625,13.716 4.625,13.875L3.5,13.875C3.469,13.872 3.437,13.872 3.406,13.875C3.177,13.919 2.996,14.142 3,14.375L3,18.688C3,18.949 3.238,19.187 3.5,19.188L5.125,19.188C5.749,19.188 6.298,19.011 6.688,18.625C6.843,18.471 6.973,18.296 7.063,18.094L7.844,18.094C8.71,18.094 9.406,17.397 9.406,16.531C9.406,15.666 8.71,14.938 7.844,14.938L7,14.938C6.915,14.765 6.824,14.573 6.688,14.438C6.409,14.161 6.036,13.98 5.625,13.906C5.625,13.741 5.625,13.68 5.625,13.469C5.625,13.032 5.626,12.522 5.625,12.563C5.694,8.789 7.754,5.331 11.063,3.438C14.428,1.511 18.572,1.511 21.938,3.438C25.203,5.307 27.256,8.72 27.375,12.438C27.377,12.501 27.376,12.667 27.375,12.813C26.053,12.877 24.969,13.95 24.969,15.281L24.969,17.75C24.969,18.896 25.778,19.865 26.844,20.156C26.766,24.583 23.419,27.621 19.031,28.656L19.031,28.344C19.031,28.082 18.793,27.844 18.531,27.844L17.781,27.844L17.031,27.844L16.313,27.844C15.913,27.844 15.547,28.083 15.344,28.375C15.141,28.667 15.063,29.016 15.063,29.406C15.063,29.797 15.141,30.176 15.344,30.469C15.547,30.761 15.913,31 16.313,31L18.531,31C18.793,31 19.031,30.762 19.031,30.5L19.031,29.688C23.842,28.624 27.733,25.191 27.844,20.219C29.058,20.048 30,19.006 30,17.75L30,15.281C30,14.216 29.321,13.318 28.375,12.969C28.375,12.831 28.379,12.542 28.375,12.406C28.245,8.342 26.002,4.603 22.438,2.563C20.601,1.511 18.55,1 16.5,1ZM27.5,13.813C28.347,13.813 29,14.449 29,15.281L29,17.75C29,18.583 28.347,19.25 27.5,19.25C26.653,19.25 25.969,18.583 25.969,17.75L25.969,15.281C25.969,14.449 26.653,13.813 27.5,13.813ZM4,14.875L5.031,14.875C5.093,14.887 5.157,14.887 5.219,14.875C5.611,14.89 5.86,14.986 6,15.125C6.152,15.276 6.25,15.547 6.25,16L6.25,17.063C6.25,17.516 6.152,17.755 6,17.906C5.848,18.057 5.584,18.188 5.125,18.188L4,18.188L4,17.063L4,16L4,14.875ZM7.25,15.938L7.844,15.938C8.178,15.938 8.406,16.207 8.406,16.531C8.406,16.856 8.178,17.094 7.844,17.094L7.25,17.094C7.25,17.083 7.25,17.073 7.25,17.063L7.25,16C7.25,15.978 7.25,15.959 7.25,15.938ZM10.344,19C10.137,19.068 9.989,19.283 10,19.5L10,26.5C10,26.762 10.238,27 10.5,27L12,27L12,28.5C12.011,28.869 12.524,29.106 12.813,28.875L15.063,27L20.5,27C20.762,27 21,26.762 21,26.5L21,19.5C21,19.238 20.762,19 20.5,19L10.5,19C10.448,18.992 10.395,18.992 10.344,19ZM11,20L20,20L20,26L14.906,26C14.796,25.996 14.684,26.029 14.594,26.094L13,27.406L13,26.5C13,26.238 12.762,26 12.5,26L11,26L11,20ZM13.5,22.5C13.224,22.5 13,22.724 13,23C13,23.276 13.224,23.5 13.5,23.5C13.776,23.5 14,23.276 14,23C14,22.724 13.776,22.5 13.5,22.5ZM15.5,22.5C15.224,22.5 15,22.724 15,23C15,23.276 15.224,23.5 15.5,23.5C15.776,23.5 16,23.276 16,23C16,22.724 15.776,22.5 15.5,22.5ZM17.5,22.5C17.224,22.5 17,22.724 17,23C17,23.276 17.224,23.5 17.5,23.5C17.776,23.5 18,23.276 18,23C18,22.724 17.776,22.5 17.5,22.5ZM16.281,28.844C16.303,28.832 16.306,28.844 16.313,28.844L18.031,28.844L18.031,29.156C18.02,29.218 18.02,29.282 18.031,29.344L18.031,30L17.781,30L17.031,30L16.313,30C16.3,30 16.254,29.971 16.188,29.875C16.121,29.779 16.063,29.611 16.063,29.406C16.063,29.202 16.121,29.033 16.188,28.938C16.221,28.89 16.26,28.855 16.281,28.844Z" style="fill:rgb(241,192,192);fill-rule:nonzero;"/>
    </g>
</svg>
